<svg id="bcd43b0f-6ca6-40fc-b1dd-91c943f38911" data-name="Calque 1" xmlns="http://www.w3.org/2000/svg" viewBox="0 0 167.5617 49.2422"><title>diffy</title><path d="M63,14.87a7.885,7.885,0,0,0-5.56-5.56C52.54,8,32.88,8,32.88,8S13.23,8,8.32,9.31a7.885,7.885,0,0,0-5.56,5.56C1.45,19.77,1.45,30,1.45,30s0,10.23,1.31,15.13a7.885,7.885,0,0,0,5.56,5.56C13.23,52,32.88,52,32.88,52s19.66,0,24.56-1.31A7.885,7.885,0,0,0,63,45.13C64.31,40.23,64.31,30,64.31,30S64.31,19.77,63,14.87Z" transform="translate(-1.45 -8)" style="fill:#00adee"/><path d="M22.8976,29.54q0-5.0751-.0019-10.15c0-.0749.0169-.0918.0918-.0918q10.15.003,20.3,0c.0749,0,.0918.0169.0918.0918q-.003,10.15,0,20.3c0,.0749-.0169.0917-.0918.0917q-10.15-.003-20.3,0c-.0749,0-.0918-.0168-.0918-.0917Q22.899,34.6148,22.8976,29.54Z" transform="translate(-1.45 -8)" style="fill:#00adee"/><path d="M23.76,26.8755a5.0957,5.0957,0,0,1,1.8679-3.9185,4.5653,4.5653,0,0,1,2.1394-.9931,5.4814,5.4814,0,0,1,3.2093.3108A4.6513,4.6513,0,0,1,32.6147,23.44c.1506.1645.3067.3241.456.49.0462.0513.0707.0449.1151-.0016a10.4822,10.4822,0,0,1,.9067-.9139,5.2144,5.2144,0,0,1,5.6062-.6383A4.806,4.806,0,0,1,42.25,25.3758a5.0969,5.0969,0,0,1-.85,4.72,10.0716,10.0716,0,0,1-.833.929q-3.1253,3.3135-6.253,6.6248c-.3748.3971-.75.7936-1.1222,1.1935-.0527.0567-.0772.0532-.1284-.0011q-3.7306-3.9579-7.4646-7.9126a8.2776,8.2776,0,0,1-.9473-1.1185,5.2237,5.2237,0,0,1-.88-2.7066C23.769,27.0348,23.7646,26.9651,23.76,26.8755Z" transform="translate(-1.45 -8)" style="fill:#fcfcfc"/><path d="M72.3887,46.874V12.5054H82.9q7.872,0,12.6484,4.7519T100.3247,29.69q0,7.7284-4.7759,12.457T82.9,46.874ZM76.8047,16.73V42.65H82.9q6,0,9.456-3.4326,3.4563-3.4306,3.4561-9.5283,0-6.0477-3.4561-9.504T82.9,16.73Z" transform="translate(-1.45 -8)"/><path d="M110.501,15.2417a3.12,3.12,0,1,1-5.3281-2.208,3.12,3.12,0,0,1,5.3281,2.208Zm-.9121,8.1118V46.874h-4.416V23.3535Z" transform="translate(-1.45 -8)"/><path d="M122.6436,23.3535h10.56V19.9453a7.5249,7.5249,0,0,1,2.2324-5.6636,7.902,7.902,0,0,1,5.7354-2.16,8.361,8.361,0,0,1,3.9365.8159l-1.2,3.8882a5.71,5.71,0,0,0-2.5918-.5762,3.4461,3.4461,0,0,0-2.664,1.1279,4.27,4.27,0,0,0-1.0323,3v2.9761h6.1436v4.0322h-6.1436V46.874h-4.416V27.3857H122.6436V46.874h-4.4161V27.3857h-4.416V23.3535h4.416V19.9453a7.5239,7.5239,0,0,1,2.2315-5.6636,7.9056,7.9056,0,0,1,5.7363-2.16,8.3574,8.3574,0,0,1,3.9356.8159l-1.1993,3.8882a5.7167,5.7167,0,0,0-2.5927-.5762,3.4491,3.4491,0,0,0-2.6641,1.1279,4.27,4.27,0,0,0-1.0312,3Z" transform="translate(-1.45 -8)"/><path d="M169.0117,23.3535,154.2754,57.2422h-4.56l5.4717-11.8565-9.6953-22.0322h4.8L157.3,40.25h.0957l6.8164-16.8965Z" transform="translate(-1.45 -8)"/></svg>