<?xml version="1.0" standalone="no"?>
<!DOCTYPE svg PUBLIC "-//W3C//DTD SVG 20010904//EN"
 "http://www.w3.org/TR/2001/REC-SVG-20010904/DTD/svg10.dtd">
<svg version="1.0" xmlns="http://www.w3.org/2000/svg"
 width="1024.000000pt" height="1024.000000pt" viewBox="0 0 1024.000000 1024.000000"
 preserveAspectRatio="xMidYMid meet">
<metadata>
Created by potrace 1.15, written by Peter Selinger 2001-2017
</metadata>
<g transform="translate(0.000000,1024.000000) scale(0.100000,-0.100000)"
fill="#000000" stroke="none">
<path d="M7105 8970 c-514 -29 -992 -201 -1406 -506 -122 -90 -246 -205 -409
-380 -89 -96 -166 -174 -170 -174 -4 0 -90 88 -191 196 -101 108 -228 234
-284 281 -271 229 -605 400 -950 488 -253 64 -423 85 -712 85 -856 0 -1553
-337 -2039 -986 -355 -474 -530 -1030 -511 -1619 14 -402 99 -740 279 -1099
107 -214 260 -437 415 -605 212 -232 3987 -4226 3993 -4226 6 0 3781 3994
3993 4226 155 168 308 391 415 605 180 359 265 697 279 1099 14 421 -66 804
-246 1180 -265 552 -675 955 -1227 1208 -265 121 -604 207 -874 222 -198 11
-228 12 -355 5z"/>
</g>
</svg>
